<svg xmlns="http://www.w3.org/2000/svg" fill="none" viewBox="0 0 154 42">
  <path fill="#131313" d="M35.1888 15.2849c-1.0246 0-1.9812-.1736-2.8697-.5207-.8819-.347-1.6407-.8317-2.2763-1.4538-.6355-.6221-1.1349-1.3916-1.498-2.3084C28.1816 10.0851 28 9.0799 28 7.98625c0-1.46038.3113-2.74394.9339-3.85069.6225-1.11329 1.4754-1.96464 2.5584-2.55403C32.5818.992141 33.814.697446 35.1888.697446c1.5695 0 2.9443.383104 4.1246 1.149314s2.0202 1.82056 2.5195 3.16306l-2.7237 1.00197c-.3113-.8186-.8139-1.45711-1.5079-1.91552-.6939-.45842-1.498-.68763-2.4125-.68763-1.2451 0-2.2698.41258-3.0739 1.23773-.8042.82514-1.2063 1.93844-1.2063 3.33988s.4021 2.51805 1.2063 3.34975c.8106.8251 1.8353 1.2377 3.0739 1.2377.908 0 1.7089-.2292 2.4028-.6876.7004-.465 1.2063-1.1068 1.5176-1.92539l2.7237 1.00199c-.4993 1.3425-1.3392 2.4001-2.5195 3.1729-1.1803.7662-2.5551 1.1493-4.1246 1.1493Zm12.1415 0c-1.0636 0-2.0072-.2063-2.8308-.6189-.8236-.4126-1.4721-1.0183-1.9455-1.8173-.467-.7989-.7004-1.7387-.7004-2.8192 0-1.61758.5058-2.89459 1.5175-3.83107s2.3314-1.40472 3.9592-1.40472c1.6343 0 2.9573.46824 3.969 1.40472 1.0117.93648 1.5175 2.21349 1.5175 3.83107 0 1.6241-.5058 2.9076-1.5175 3.8507-1.0117.9364-2.3347 1.4047-3.969 1.4047Zm-.0292-2.2495c.8172 0 1.4754-.2751 1.9748-.8252.5058-.5501.7587-1.277.7587-2.1807 0-.90376-.2529-1.63068-.7587-2.18078-.4994-.55009-1.1576-.82514-1.9748-.82514-.7847 0-1.4267.27832-1.9261.83497-.4928.55009-.7393 1.27374-.7393 2.17095 0 .8972.2465 1.6241.7393 2.1807.4994.5501 1.1414.8252 1.9261.8252Zm6.4118 2.053V0h2.8308v15.0884h-2.8308Zm4.5441 0V0h2.8308v15.0884H58.257Zm13.9508-5.19645-.0292.67775h-7.4125c.0583.8055.3242 1.4211.7976 1.8468.4735.4257 1.0604.6385 1.7608.6385.5058 0 .9436-.1146 1.3132-.3438.3762-.2358.6583-.5763.8463-1.0216l2.5682.3831c-.3308 1.0151-.9144 1.8042-1.751 2.3674-.8366.5632-1.8224.8448-2.9573.8448-1.6343 0-2.9345-.4617-3.9008-1.3851-.9598-.9299-1.4397-2.2168-1.4397-3.8605 0-1.63066.4831-2.91422 1.4494-3.85069.9663-.94303 2.2342-1.41454 3.8036-1.41454 1.4916 0 2.6881.42894 3.5895 1.28683.9015.8579 1.3554 2.13491 1.3619 3.83105ZM67.2758 6.778c-1.3619 0-2.1725.64833-2.4319 1.94499h4.5915c-.0713-.62869-.3016-1.11002-.6907-1.44401S67.866 6.778 67.2758 6.778Zm12.7543-1.78782h2.6655V14.332c0 .9627-.1265 1.8009-.3794 2.5148-.2465.7138-.6064 1.2868-1.0798 1.719-.4734.4388-1.0279.7629-1.6635.9725-.6355.2096-1.3619.3144-2.179.3144-2.6395 0-4.358-1.0446-5.1557-3.1336l2.3249-1.002c.2854.6614.6453 1.1493 1.0798 1.4636.4345.3144.9825.4716 1.644.4716 1.7316 0 2.5973-1.038 2.5973-3.114v-1.1788c-.2983.4126-.7198.7466-1.2646 1.002-.5383.2488-1.1284.3733-1.7704.3733-.6161 0-1.2031-.1179-1.7608-.3537-.5512-.2423-1.0344-.5763-1.4494-1.0019-.4151-.4322-.7458-.9627-.9923-1.5914-.2399-.6287-.3599-1.3097-.3599-2.0432 0-.74002.12-1.42109.3599-2.04322.2465-.62869.5772-1.15259.9923-1.57171.4215-.41913.9079-.74657 1.4591-.98232.5578-.23576 1.1479-.35364 1.7705-.35364.6874 0 1.3035.1408 1.8483.4224.5512.27505.9663.64506 1.2452 1.11002l.068-1.33595Zm-4.2996 6.67972c.4993.5174 1.1122.7761 1.8385.7761.7264 0 1.3392-.262 1.8386-.7859.4993-.5239.749-1.1624.749-1.9155 0-.75966-.2497-1.40144-.749-1.92535-.4929-.5239-1.1058-.78585-1.8386-.78585-.7393 0-1.3554.25868-1.8483.77603-.4864.51081-.7296 1.15586-.7296 1.93517 0 .7662.2465 1.408.7394 1.9253Zm18.0948-1.77795-.0291.67775h-7.4126c.0583.8055.3242 1.4211.7977 1.8468.4734.4257 1.0603.6385 1.7607.6385.5058 0 .9436-.1146 1.3132-.3438.3762-.2358.6583-.5763.8464-1.0216l2.5681.3831c-.3307 1.0151-.9144 1.8042-1.751 2.3674-.8366.5632-1.8223.8448-2.9573.8448-1.6342 0-2.9345-.4617-3.9008-1.3851-.9598-.9299-1.4397-2.2168-1.4397-3.8605 0-1.63066.4831-2.91422 1.4494-3.85069.9663-.94303 2.2342-1.41454 3.8036-1.41454 1.4916 0 2.6881.42894 3.5896 1.28683.9014.8579 1.3554 2.13491 1.3618 3.83105ZM88.8933 6.778c-1.3618 0-2.1725.64833-2.4319 1.94499h4.5915c-.0713-.62869-.3015-1.11002-.6907-1.44401-.3891-.33399-.8787-.50098-1.4689-.50098Zm14.8857 8.5069c-1.543 0-2.844-.3602-3.9006-1.0806-1.0571-.7269-1.6894-1.742-1.897-3.0452l3.0156-.6974c.097.7793.405 1.3785.924 1.7976.526.4126 1.184.6189 1.975.6189.629 0 1.141-.1441 1.537-.4322.396-.2947.59-.7269.584-1.2967 0-.3995-.166-.7498-.497-1.0511-.33-.30121-.661-.51405-.992-.63847-.324-.13098-.849-.3078-1.576-.53046-.097-.03274-.168-.05566-.214-.06876-.369-.11788-.668-.21611-.895-.29469-.227-.07859-.509-.18664-.846-.32417-.331-.14407-.603-.2816-.817-.41257-.2076-.13753-.4313-.3078-.6713-.51081-.2399-.20956-.428-.42894-.5642-.65815-.1362-.22921-.2497-.50098-.3405-.81533-.0908-.31434-.1362-.6516-.1362-1.01178 0-.8579.2173-1.60118.6518-2.22987.441-.63523 1.0314-1.11002 1.7704-1.42436.746-.320889 1.592-.481334 2.539-.481334.642 0 1.252.068762 1.829.206287.584.137527 1.132.350357 1.644.638507.512.2816.947.67125 1.303 1.16896.364.49116.613 1.06418.749 1.71906l-2.821.70726c-.253-1.35559-1.096-2.03339-2.529-2.03339-.635 0-1.157.13752-1.566.41257-.409.27505-.613.6909-.613 1.24754 0 .51736.341.93648 1.022 1.25737.317.15717.969.38311 1.955.6778.382.11788.694.21611.934.2947.24.07858.541.19319.904.34381.364.15062.659.29797.886.44204.227.13753.473.31762.739.54028.266.22265.473.45841.622.70727.156.24885.286.54354.39.88408.103.33401.155.69741.155 1.09041 0 .5894-.094 1.1231-.282 1.6011-.188.4781-.447.8809-.778 1.2083-.324.3274-.71.6058-1.158.835-.447.2226-.924.3831-1.43.4813-.506.1048-1.041.1572-1.605.1572Zm12.258-10.49119c.662 0 1.284.12116 1.868.36346.584.24231 1.093.58284 1.527 1.02161.441.43877.788.99542 1.041 1.66994.253.66798.38 1.40472.38 2.21018 0 .8055-.127 1.5456-.38 2.2201-.253.668-.6 1.2213-1.041 1.6601-.434.4388-.943.7793-1.527 1.0216-.584.2423-1.206.3635-1.868.3635-.661 0-1.264-.1245-1.809-.3733-.545-.2489-.963-.6025-1.255-1.0609V20h-2.801V4.99018h2.655l.078 1.3556c.272-.49116.688-.87099 1.245-1.13949.564-.27505 1.194-.41258 1.887-.41258Zm-.632 8.18269c.759 0 1.388-.2619 1.887-.7858.506-.5305.759-1.241.759-2.1317 0-.8906-.253-1.59787-.759-2.12177-.499-.53045-1.128-.79568-1.887-.79568-.765 0-1.401.2685-1.907.80551-.505.537-.758 1.24099-.758 2.11194 0 .871.253 1.575.758 2.112.506.537 1.142.8055 1.907.8055Zm11.033 2.3085c-1.064 0-2.008-.2063-2.831-.6189-.824-.4126-1.472-1.0183-1.946-1.8173-.467-.7989-.7-1.7387-.7-2.8192 0-1.61758.506-2.89459 1.517-3.83107 1.012-.93648 2.332-1.40472 3.96-1.40472 1.634 0 2.957.46824 3.969 1.40472 1.011.93648 1.517 2.21349 1.517 3.83107 0 1.6241-.506 2.9076-1.517 3.8507-1.012.9364-2.335 1.4047-3.969 1.4047Zm-.03-2.2495c.818 0 1.476-.2751 1.975-.8252.506-.5501.759-1.277.759-2.1807 0-.90376-.253-1.63068-.759-2.18078-.499-.55009-1.157-.82514-1.975-.82514-.784 0-1.426.27832-1.926.83497-.493.55009-.739 1.27374-.739 2.17095 0 .8972.246 1.6241.739 2.1807.5.5501 1.142.8252 1.926.8252Zm9.097-6.44404c.266-.47152.704-.87427 1.313-1.20826.61-.34053 1.262-.5108 1.956-.5108v2.52456c-1.103 0-1.901.20301-2.393.60903-.493.40603-.74 1.1264-.74 2.16111v4.9214h-2.821V4.99018h2.685v1.60118Z"/>
  <path fill="#131313" d="M143.541 15.0884c-.972 0-1.725-.2718-2.256-.8153-.532-.5501-.798-1.3294-.798-2.3379V7.1611h-1.965V4.99018h.632c.564 0 .979-.1408 1.245-.4224.266-.2816.399-.78258.399-1.50295V1.72888h2.529v3.2613h2.063V7.1611h-2.063v4.4695c0 .871.386 1.3065 1.158 1.3065h.905v2.1513h-1.849Zm6.344.1965c-1.167 0-2.14-.2358-2.918-.7073-.778-.4715-1.255-1.1722-1.43-2.1022l2.344-.6679c.279 1.0019.947 1.5029 2.004 1.5029.409 0 .749-.0753 1.022-.2259.272-.1572.405-.4191.398-.7859 0-.203-.055-.3765-.165-.5206-.11-.1441-.282-.2685-.516-.3733-.227-.1048-.454-.1932-.68-.2652-.221-.072-.516-.1572-.886-.2554-.369-.1048-.677-.203-.924-.2947-.337-.1179-.632-.2423-.885-.3733-.247-.1375-.49-.31106-.73-.52062-.233-.21611-.415-.48133-.544-.79568-.124-.31434-.185-.67452-.185-1.08055 0-.99541.36-1.74852 1.08-2.25933.726-.5108 1.673-.76621 2.84-.76621 1.038 0 1.91.21611 2.617.64833.707.43222 1.154 1.10675 1.342 2.02358l-2.169.49116c-.272-.85134-.866-1.27702-1.78-1.27702-.396 0-.723.07532-.983.22594-.259.15062-.389.37328-.389.66797 0 .11133.02.21284.059.30452.038.09169.107.17355.204.24558.097.07204.191.13425.282.18664.091.05239.224.10806.399.167.175.05239.321.09495.437.1277.117.02619.286.06876.506.1277.227.05894.402.10478.526.13752.356.09824.668.19647.934.2947.272.09823.56.23576.865.41257.305.17682.555.37656.749.5992.201.2161.367.4945.496.835.13.334.195.7073.195 1.1198 0 .5567-.113 1.0446-.34 1.4637-.221.4191-.526.7498-.915.9921-.389.2358-.824.4093-1.303.5207-.474.1178-.993.1768-1.557.1768Zm-25.833 6.638-.379-1.1491h-2.188l-.378 1.1491H120l1.918-5.572h1.323l1.917 5.572h-1.106Zm-2.25-2.117h1.554l-.775-2.3637-.779 2.3637Zm6.829-1.847h1.038v3.964h-.984l-.025-.4782c-.274.3702-.667.5553-1.179.5553-.444 0-.786-.1183-1.024-.3548-.237-.239-.356-.5784-.356-1.018v-2.6683h1.041v2.4293c0 .2468.062.428.184.5437.125.1157.286.1735.483.1735.24 0 .436-.0746.588-.2237.154-.1516.232-.3971.234-.7365v-2.1863ZM132.421 22c-.433 0-.793-.0925-1.081-.2776-.289-.1851-.465-.4602-.53-.8252l.868-.2622c.104.3933.351.5899.743.5899.151 0 .278-.0295.378-.0887.101-.0616.151-.1645.148-.3084 0-.0797-.02-.1479-.061-.2044-.041-.0566-.105-.1054-.191-.1465-.084-.0412-.168-.0759-.252-.1041-.082-.0283-.191-.0617-.328-.1003-.137-.0411-.252-.0797-.343-.1157-.125-.0463-.234-.0951-.328-.1465-.091-.054-.181-.1221-.27-.2044-.087-.0848-.154-.1889-.202-.3123-.046-.1234-.069-.2648-.069-.4242 0-.3907.134-.6864.401-.8869.269-.2005.62-.3008 1.052-.3008.385 0 .708.0849.97.2545.262.1697.428.4345.497.7944l-.804.1928c-.101-.3342-.32-.5013-.659-.5013-.147 0-.268.0296-.364.0887-.096.0591-.145.1465-.145.2622 0 .0437.008.0836.022.1195.014.036.04.0682.076.0964.036.0283.071.0527.104.0733.034.0206.083.0424.148.0656.065.0205.119.0372.162.0501.044.0103.106.027.188.0501.084.0232.149.0412.194.054.133.0386.248.0771.346.1157.101.0385.208.0925.321.1619.113.0694.206.1479.278.2353.074.0848.136.194.184.3277.048.1311.072.2777.072.4396 0 .2185-.042.41-.126.5746-.082.1645-.195.2943-.339.3894-.144.0926-.305.1607-.483.2044-.176.0463-.368.0694-.577.0694Zm4.021-.0771c-.361 0-.64-.1067-.837-.3201-.197-.2159-.295-.5218-.295-.9177v-1.874h-.728v-.8522h.234c.209 0 .363-.0553.461-.1658.099-.1106.148-.3072.148-.59v-.5244h.937v1.2802h.765v.8522h-.765v1.7545c0 .3419.143.5128.429.5128h.336v.8445h-.685Zm2.852-3.3355c.099-.1851.261-.3432.487-.4743.226-.1337.467-.2005.725-.2005v.991c-.409 0-.705.0797-.887.2391-.183.1594-.274.4421-.274.8483v1.9319h-1.046v-3.964h.995v.6285Zm5.211 2.2596c0 .4216.03.7443.09.9679v.108h-.97l-.083-.4319c-.132.1697-.305.2969-.519.3818-.214.0848-.437.1272-.67.1272-.123 0-.238-.0116-.346-.0347-.109-.0231-.213-.0617-.314-.1157-.099-.0565-.184-.1259-.256-.2082-.072-.0823-.13-.1864-.173-.3124-.043-.1285-.065-.2724-.065-.4318 0-.1594.023-.3021.069-.428.045-.1286.105-.2366.18-.324.074-.0874.172-.1658.292-.2352.12-.0694.242-.1259.367-.1696.125-.0437.272-.0849.44-.1234l.609-.1466c.13-.0334.222-.0745.274-.1234.056-.0514.083-.1182.083-.2005 0-.1773-.061-.3046-.184-.3817-.12-.0771-.266-.1157-.439-.1157-.426 0-.667.2018-.725.6054l-.919-.1774c.077-.4087.256-.7095.537-.9023.281-.1954.669-.2931 1.164-.2931 1.038 0 1.558.4769 1.558 1.4306v1.5347Zm-1.828.4011c.262 0 .476-.0951.642-.2854.165-.1928.248-.4768.248-.8522l-.879.2661c-.161.0411-.285.0951-.371.162-.085.0668-.127.1619-.127.2853 0 .1363.046.2417.137.3162.092.072.208.108.35.108Zm3.21.6748V16h1.049v5.9229h-1.049Zm3.025-4.5579c-.165 0-.307-.0617-.425-.1851-.118-.1259-.177-.2776-.177-.455 0-.1748.059-.3239.177-.4473.12-.1259.262-.1889.425-.1889.161 0 .301.063.419.1889.117.1234.176.2725.176.4473 0 .1774-.059.3291-.176.455-.118.1234-.258.1851-.419.1851Zm-.53 4.5579v-3.964h1.046v3.964h-1.046Zm5.528-1.0759c0 .4216.03.7443.09.9679v.108h-.97l-.083-.4319c-.132.1697-.305.2969-.519.3818-.214.0848-.437.1272-.67.1272-.123 0-.238-.0116-.346-.0347-.108-.0231-.213-.0617-.314-.1157-.098-.0565-.184-.1259-.256-.2082-.072-.0823-.129-.1864-.173-.3124-.043-.1285-.065-.2724-.065-.4318 0-.1594.023-.3021.069-.428.046-.1286.106-.2366.18-.324.075-.0874.172-.1658.292-.2352.12-.0694.243-.1259.368-.1696.125-.0437.271-.0849.44-.1234l.609-.1466c.13-.0334.221-.0745.274-.1234.055-.0514.083-.1182.083-.2005 0-.1773-.062-.3046-.184-.3817-.12-.0771-.267-.1157-.44-.1157-.425 0-.667.2018-.725.6054l-.919-.1774c.077-.4087.256-.7095.537-.9023.282-.1954.67-.2931 1.165-.2931 1.038 0 1.557.4769 1.557 1.4306v1.5347Zm-1.828.4011c.262 0 .476-.0951.642-.2854.166-.1928.249-.4768.249-.8522l-.88.2661c-.161.0411-.285.0951-.371.162-.084.0668-.126.1619-.126.2853 0 .1363.045.2417.137.3162.091.072.208.108.349.108ZM.965909 14.1429 7.14773 5h9.07957l-4.6364 4.95238-2.31817.57142H17L0 21l5.79545-7.619-4.829541.7619Z"/>
  <path fill="#131313" d="m0 0 16 5.33333L7.90805 8 0 0Zm13 9 4.1724-4L24 7.54545 13 9Zm-2.8386-6.97066c.1274-.37277.3271-.71679.5875-1.01241.2604-.295618.5765-.537048.9302-.710505.3538-.173457.7382-.2755439 1.1314-.30043248.3932-.02488862.7874.02790878 1.1602.15537748.3727.127469.7168.327113 1.0124.587534.2956.260416.537.576516.7105.930246.1734.35372.2755.73815.3004 1.13133.0249.39318-.0279.78741-.1554 1.16018L13 3l-2.8386-.97066Z"/>
</svg>
