<svg xmlns="http://www.w3.org/2000/svg" fill="none" viewBox="0 0 154 42"><path fill="#131313" d="M35.2 15.3q-1.5 0-2.9-.5T30 13.3a7 7 0 0 1-1.5-2.3Q28 9.5 28 8q0-2.2 1-3.9t2.5-2.5Q33 .7 35.2.7q2.4 0 4.1 1.1Q41.1 3 41.8 5l-2.7 1q-.4-1.2-1.5-1.9-1-.7-2.4-.7-2 0-3 1.2Q30.8 6 30.8 8t1.2 3.3q1.3 1.3 3 1.3 1.5 0 2.5-.7a4 4 0 0 0 1.5-2l2.7 1a6 6 0 0 1-2.5 3.2 7 7 0 0 1-4.1 1.2m12.2 0q-1.5 0-2.8-.6t-2-1.9T42 10a5 5 0 0 1 1.5-3.8q1.5-1.5 4-1.4 2.4 0 3.9 1.4a5 5 0 0 1 1.5 3.8 5 5 0 0 1-1.5 3.9q-1.5 1.4-4 1.4m0-2.3q1.2 0 2-.8.7-.8.7-2.2 0-1.3-.7-2.2-.8-.8-2-.8t-2 .9-.7 2.1q0 1.5.8 2.2.7.9 1.9.8m6.3 2V0h2.8v15zm4.6 0V0H61v15zm13.9-5.1v.7h-7.4q0 1.2.8 1.8.6.6 1.7.7.8 0 1.3-.4.6-.3.9-1l2.6.4q-.6 1.5-1.8 2.3-1.2.9-3 .9-2.4 0-3.9-1.4T62 10t1.5-3.8q1.4-1.5 3.8-1.4A5 5 0 0 1 70.8 6q1.5 1.2 1.4 3.8m-5-3.1q-2 0-2.4 2h4.6q0-1-.7-1.5-.5-.6-1.4-.5M80 5h2.7v9.3q0 1.5-.4 2.5a4 4 0 0 1-2.7 2.7l-2.2.4q-4 0-5.2-3.2l2.4-1q.3 1 1 1.5t1.7.5q2.6 0 2.6-3.2v-1.1q-.4.6-1.3 1-.7.3-1.8.3a5 5 0 0 1-3.2-1.3l-1-1.6q-.3-1-.3-2 0-1.2.3-2.1.4-1 1-1.6A5 5 0 0 1 77 4.8a4 4 0 0 1 1.8.4q.9.5 1.3 1.1zm-4.3 6.7q.7.7 1.9.7 1 0 1.8-.7.8-.8.8-2t-.8-1.9-1.8-.8-1.9.8-.7 2 .7 1.9m18.1-1.8v.7h-7.4q0 1.2.8 1.8.7.6 1.7.7.8 0 1.4-.4.5-.3.8-1l2.6.4q-.6 1.5-1.8 2.3-1.2.9-3 .9-2.4 0-3.8-1.4-1.5-1.4-1.5-3.9 0-2.4 1.5-3.8 1.5-1.5 3.8-1.4A5 5 0 0 1 92.5 6q1.3 1.2 1.3 3.8m-5-3.1q-1.9 0-2.3 2H91q-.1-1-.7-1.5t-1.5-.5m15 8.6q-2.4 0-4-1.1-1.5-1-1.8-3l3-.7q0 1 1 1.8.6.6 1.9.6.9 0 1.5-.5.6-.3.6-1.3 0-.6-.5-1t-1-.6l-2.7-1-1.6-.7-.7-.5a3 3 0 0 1-.9-1.5l-.1-1a4 4 0 0 1 2.4-3.6q1.1-.5 2.5-.5 1 0 1.9.2l1.6.6q.8.4 1.3 1.2t.8 1.7l-2.9.7q-.3-2-2.5-2-1 0-1.6.4t-.6 1.3 1 1.2l3 1 1.7.8.8.5.6.7a4 4 0 0 1 .5 2q0 .9-.2 1.6t-.8 1.2-1.2.8-1.4.5zM116 4.8a5 5 0 0 1 3.4 1.4q.7.7 1 1.6.5 1 .5 2.3t-.4 2.2a5 5 0 0 1-4.5 3l-1.8-.3q-.8-.5-1.2-1.1V20h-2.8V5h2.6l.1 1.3q.4-.7 1.3-1 .8-.5 1.8-.5m-.6 8.2q1.2 0 1.9-.8a3 3 0 0 0 .8-2.1 3 3 0 0 0-.8-2.2q-.7-.8-1.9-.8t-1.9.8a3 3 0 0 0-.8 2.2q0 1.2.8 2 .7.9 2 .9m10.9 2.3q-1.5 0-2.8-.6t-2-1.9-.6-2.8a5 5 0 0 1 1.5-3.8q1.5-1.5 4-1.4 2.4 0 4 1.4a5 5 0 0 1 1.4 3.8 5 5 0 0 1-1.5 3.9q-1.5 1.4-4 1.4m0-2.3q1.2 0 2-.8a3 3 0 0 0 .7-2.2 3 3 0 0 0-.7-2.2q-.8-.8-2-.8t-2 .9-.7 2.1q0 1.5.8 2.2.7.9 2 .8m9-6.4q.4-.7 1.3-1.2a4 4 0 0 1 2-.5v2.5q-1.7 0-2.4.6-.8.6-.8 2.2V15h-2.8V5h2.7z"/><path fill="#131313" d="M143.5 15q-1.5 0-2.2-.7-.8-.9-.8-2.4V7.2h-2V5h.7q.8 0 1.2-.4t.4-1.5V1.7h2.5V5h2v2.2h-2v4.4q0 1.3 1.2 1.3h.9v2.2zm6.4.3q-1.8 0-3-.7a3 3 0 0 1-1.4-2.1l2.4-.7q.5 1.5 2 1.5.6 0 1-.2t.4-.8q0-.3-.2-.5 0-.3-.5-.4l-.7-.3-1.8-.5-.9-.4-.7-.5-.5-.8-.2-1q0-1.5 1-2.3 1.1-.8 3-.8 1.5 0 2.5.6a3 3 0 0 1 1.4 2l-2.2.6q-.5-1.3-1.8-1.3l-1 .2q-.3.3-.4.7l.1.3.2.2.3.2.4.2 2.4.7q.4 0 .9.4l.7.6.5.8.2 1.1q0 .8-.3 1.5l-1 1-1.3.5zM124 22l-.3-1.2h-2.2l-.4 1.1H120l2-5.5h1.2l2 5.5zm-2.2-2.2h1.6l-.8-2.4zm6.8-1.8h1v4h-1v-.6q-.3.6-1.1.6-.7 0-1-.4-.4-.3-.4-1V18h1v2.4l.2.5.5.2.6-.2q.3-.2.2-.8zm3.8 4-1-.3q-.5-.2-.6-.8l.9-.3q0 .6.7.6h.4l.1-.4v-.2l-.2-.1-.3-.1-.6-.2-.4-.2-.2-.2-.2-.3-.1-.4q0-.6.4-1l1-.2q.7 0 1 .2.5.3.5.8l-.8.2q0-.5-.6-.5l-.4.1-.1.3v.2h.2l.1.1.9.3.3.2.3.2.2.3v1l-.4.4-.5.2zm4 0a1 1 0 0 1-.8-.4q-.3-.3-.3-1v-1.8h-.7V18h.2l.5-.2.1-.6v-.5h1V18h.7v.8h-.7v1.8q0 .5.4.5h.3v.8zm2.9-3.4q.1-.3.5-.5l.7-.2v1q-.6 0-.9.2t-.3.9v2h-1v-4h1zm5.2 2.2V22h-.9v-.4l-.6.4h-1.3l-.3-.3-.1-.3v-.8l.4-.6.4-.2h.4l.7-.2.2-.2.1-.2q0-.2-.2-.3l-.4-.2q-.7 0-.7.7l-1-.2q.2-.6.6-1l1.1-.2q1.5 0 1.6 1.4zm-1.8.4q.4 0 .6-.2.3-.3.3-.9l-1 .3-.3.1-.1.3.1.3zm3.2.8v-6h1v6zm3.1-4.6q-.4 0-.5-.2l-.2-.5.2-.4h.8l.2.4q0 .3-.2.5zm-.6 4.5v-4h1v4zm5.6-1.1V22h-1v-.4l-.6.4h-1.3l-.3-.3-.1-.3v-.8q0-.3.2-.4l.2-.2.4-.2h.5l.6-.2.2-.2.1-.2q0-.2-.2-.3l-.4-.2q-.7 0-.7.7l-1-.2q.2-.6.6-1l1.2-.2q1.5 0 1.5 1.4zm-2 .4q.5 0 .7-.2.3-.3.3-.9l-1 .3-.3.1-.1.3.1.3zM1 14.1 7 5h9.1l-4.6 5-2.3.5H17L0 21l5.8-7.6z"/><path fill="#131313" d="m0 0 16 5.3L8 8zm13 9 4.2-4L24 7.5zm-2.8-7a3 3 0 1 1 5.6 2L13 3z"/></svg>