<svg xmlns="http://www.w3.org/2000/svg" fill="none" viewBox="0 0 154 22">
  <path fill="#131313" d="M35.189 15.285a7.817 7.817 0 0 1-2.87-.52 6.74 6.74 0 0 1-2.276-1.455c-.636-.622-1.135-1.391-1.498-2.308C28.182 10.085 28 9.08 28 7.986c0-1.46.311-2.744.934-3.85.622-1.114 1.475-1.965 2.558-2.554 1.09-.59 2.322-.885 3.697-.885 1.57 0 2.944.384 4.124 1.15 1.18.766 2.02 1.82 2.52 3.163l-2.724 1.002c-.311-.819-.814-1.457-1.508-1.916-.694-.458-1.498-.687-2.412-.687-1.245 0-2.27.412-3.074 1.237-.804.826-1.206 1.939-1.206 3.34 0 1.402.402 2.518 1.206 3.35.81.825 1.835 1.238 3.074 1.238.908 0 1.709-.23 2.403-.688.7-.465 1.206-1.107 1.517-1.925l2.724 1.002c-.5 1.342-1.34 2.4-2.52 3.173-1.18.766-2.555 1.149-4.124 1.149ZM47.33 15.285c-1.063 0-2.007-.206-2.83-.619a4.629 4.629 0 0 1-1.946-1.817c-.467-.8-.7-1.739-.7-2.82 0-1.617.505-2.894 1.517-3.83 1.012-.937 2.331-1.405 3.96-1.405 1.634 0 2.957.468 3.968 1.404 1.012.937 1.518 2.214 1.518 3.832 0 1.624-.506 2.907-1.518 3.85-1.011.937-2.334 1.405-3.969 1.405Zm-.029-2.25c.817 0 1.475-.275 1.975-.825.506-.55.759-1.277.759-2.18 0-.904-.253-1.631-.76-2.181-.498-.55-1.157-.825-1.974-.825-.785 0-1.427.278-1.926.835-.493.55-.74 1.273-.74 2.17 0 .898.247 1.625.74 2.181.5.55 1.141.825 1.926.825ZM53.713 15.088V0h2.83v15.088h-2.83ZM58.257 15.088V0h2.83v15.088h-2.83ZM72.208 9.892l-.03.678h-7.412c.058.805.324 1.42.798 1.846.473.426 1.06.639 1.76.639.506 0 .944-.115 1.314-.344.376-.236.658-.576.846-1.021l2.568.383c-.33 1.015-.914 1.804-1.75 2.367-.837.563-1.823.845-2.958.845-1.634 0-2.935-.462-3.9-1.385-.96-.93-1.44-2.217-1.44-3.86 0-1.631.483-2.915 1.449-3.851.966-.943 2.234-1.415 3.803-1.415 1.492 0 2.689.429 3.59 1.287.901.858 1.355 2.135 1.362 3.83Zm-4.932-3.114c-1.362 0-2.173.648-2.432 1.945h4.591c-.07-.629-.301-1.11-.69-1.444-.39-.334-.879-.501-1.47-.501ZM80.03 4.99h2.666v9.342c0 .963-.127 1.8-.38 2.515-.246.714-.606 1.287-1.08 1.719a4.477 4.477 0 0 1-1.663.972c-.636.21-1.362.315-2.18.315-2.639 0-4.357-1.045-5.155-3.134l2.325-1.002c.285.661.645 1.15 1.08 1.464.434.314.982.471 1.644.471 1.731 0 2.597-1.038 2.597-3.114V13.36c-.298.412-.72.746-1.264 1.002a4.168 4.168 0 0 1-1.77.373 4.476 4.476 0 0 1-1.762-.354 4.577 4.577 0 0 1-1.449-1.002 4.788 4.788 0 0 1-.992-1.591 5.684 5.684 0 0 1-.36-2.043c0-.74.12-1.421.36-2.044.246-.628.577-1.152.992-1.571.422-.42.908-.747 1.46-.983a4.5 4.5 0 0 1 1.77-.353c.687 0 1.303.14 1.848.422.551.275.966.645 1.245 1.11l.068-1.336Zm-4.3 6.68c.5.517 1.113.776 1.839.776s1.34-.262 1.839-.786c.499-.524.749-1.162.749-1.915 0-.76-.25-1.402-.75-1.926-.492-.524-1.105-.786-1.838-.786-.74 0-1.355.26-1.848.776-.487.511-.73 1.156-.73 1.936 0 .766.247 1.408.74 1.925ZM93.825 9.892l-.029.678h-7.412c.058.805.324 1.42.797 1.846.474.426 1.06.639 1.761.639.506 0 .944-.115 1.313-.344.376-.236.659-.576.847-1.021l2.568.383c-.331 1.015-.915 1.804-1.751 2.367-.837.563-1.823.845-2.958.845-1.634 0-2.934-.462-3.9-1.385-.96-.93-1.44-2.217-1.44-3.86 0-1.631.483-2.915 1.45-3.851.966-.943 2.234-1.415 3.803-1.415 1.492 0 2.688.429 3.59 1.287.9.858 1.355 2.135 1.361 3.83Zm-4.932-3.114c-1.362 0-2.172.648-2.432 1.945h4.592c-.071-.629-.302-1.11-.69-1.444-.39-.334-.88-.501-1.47-.501ZM103.779 15.285c-1.543 0-2.844-.36-3.9-1.08-1.058-.728-1.69-1.743-1.898-3.046l3.016-.697c.097.779.405 1.378.924 1.797.526.413 1.184.62 1.975.62.629 0 1.141-.145 1.537-.433.396-.295.59-.727.584-1.297 0-.4-.166-.75-.497-1.05-.33-.302-.661-.515-.992-.64a21.368 21.368 0 0 0-1.576-.53 41.222 41.222 0 0 1-1.109-.363 17.27 17.27 0 0 1-.846-.324 6.755 6.755 0 0 1-.817-.413 7.282 7.282 0 0 1-.671-.51 2.749 2.749 0 0 1-.564-.659 3.488 3.488 0 0 1-.341-.815 3.63 3.63 0 0 1-.136-1.012c0-.858.217-1.601.652-2.23a4.021 4.021 0 0 1 1.77-1.424c.746-.321 1.592-.482 2.539-.482a7.87 7.87 0 0 1 1.829.207 6.26 6.26 0 0 1 1.644.638c.512.282.947.671 1.303 1.17a4.32 4.32 0 0 1 .749 1.718l-2.821.708c-.253-1.356-1.096-2.034-2.529-2.034-.635 0-1.157.138-1.566.413-.409.275-.613.69-.613 1.247 0 .518.341.937 1.022 1.258.317.157.969.383 1.955.677.382.118.694.217.934.295.24.079.541.193.904.344.364.15.659.298.886.442.227.137.473.318.739.54.266.223.473.459.622.708.156.248.286.543.39.884.103.334.155.697.155 1.09 0 .59-.094 1.123-.282 1.601-.188.478-.447.881-.778 1.208a4.49 4.49 0 0 1-1.158.835 5.576 5.576 0 0 1-1.43.482 7.901 7.901 0 0 1-1.605.157ZM116.037 4.794c.662 0 1.284.12 1.868.363a4.607 4.607 0 0 1 1.527 1.022c.441.439.788.995 1.041 1.67.253.668.38 1.404.38 2.21 0 .805-.127 1.546-.38 2.22-.253.668-.6 1.221-1.041 1.66-.434.439-.943.78-1.527 1.022a4.823 4.823 0 0 1-1.868.363 4.305 4.305 0 0 1-1.809-.373c-.545-.249-.963-.603-1.255-1.061V20h-2.801V4.99h2.655l.078 1.356c.272-.491.688-.871 1.245-1.14a4.25 4.25 0 0 1 1.887-.412Zm-.632 8.182c.759 0 1.388-.262 1.887-.785.506-.53.759-1.241.759-2.132 0-.89-.253-1.598-.759-2.122-.499-.53-1.128-.796-1.887-.796-.765 0-1.401.269-1.907.806-.505.537-.758 1.241-.758 2.112 0 .87.253 1.575.758 2.112.506.537 1.142.805 1.907.805ZM126.438 15.285c-1.064 0-2.008-.206-2.831-.619a4.631 4.631 0 0 1-1.946-1.817c-.467-.8-.7-1.739-.7-2.82 0-1.617.506-2.894 1.517-3.83 1.012-.937 2.332-1.405 3.96-1.405 1.634 0 2.957.468 3.969 1.404 1.011.937 1.517 2.214 1.517 3.832 0 1.624-.506 2.907-1.517 3.85-1.012.937-2.335 1.405-3.969 1.405Zm-.03-2.25c.818 0 1.476-.275 1.975-.825.506-.55.759-1.277.759-2.18 0-.904-.253-1.631-.759-2.181-.499-.55-1.157-.825-1.975-.825-.784 0-1.426.278-1.926.835-.493.55-.739 1.273-.739 2.17 0 .898.246 1.625.739 2.181.5.55 1.142.825 1.926.825ZM135.505 6.591c.266-.471.704-.874 1.313-1.208a3.95 3.95 0 0 1 1.956-.51v2.524c-1.103 0-1.901.203-2.393.609-.493.406-.74 1.126-.74 2.161v4.921h-2.821V4.99h2.685v1.601Z"/>
  <path fill="#131313" d="M143.541 15.088c-.972 0-1.725-.271-2.256-.815-.532-.55-.798-1.33-.798-2.338V7.161h-1.965v-2.17h.632c.564 0 .979-.142 1.245-.423.266-.282.399-.783.399-1.503V1.729h2.529V4.99h2.063v2.171h-2.063v4.47c0 .87.386 1.306 1.158 1.306h.905v2.151h-1.849ZM149.885 15.285c-1.167 0-2.14-.236-2.918-.707-.778-.472-1.255-1.173-1.43-2.103l2.344-.668c.279 1.002.947 1.503 2.004 1.503.409 0 .749-.075 1.022-.226.272-.157.405-.419.398-.785a.833.833 0 0 0-.165-.521c-.11-.144-.282-.269-.516-.373a5.886 5.886 0 0 0-.68-.265 17.347 17.347 0 0 0-.886-.256 12.645 12.645 0 0 1-.924-.295 6.864 6.864 0 0 1-.885-.373 4.28 4.28 0 0 1-.73-.52 2.218 2.218 0 0 1-.544-.796 2.929 2.929 0 0 1-.185-1.08c0-.996.36-1.75 1.08-2.26.726-.51 1.673-.766 2.84-.766 1.038 0 1.91.216 2.617.648.707.432 1.154 1.107 1.342 2.024l-2.169.49c-.272-.85-.866-1.276-1.78-1.276-.396 0-.723.075-.983.226a.728.728 0 0 0-.389.668c0 .111.02.213.059.304a.596.596 0 0 0 .204.246c.097.072.191.134.282.186.091.053.224.108.399.167.175.053.321.095.437.128a136.73 136.73 0 0 1 1.032.265c.356.099.668.197.934.295.272.098.56.236.865.413.305.176.555.376.749.599.201.216.367.494.496.835.13.334.195.707.195 1.12 0 .556-.113 1.044-.34 1.463a2.54 2.54 0 0 1-.915.992c-.389.236-.824.41-1.303.521a6.45 6.45 0 0 1-1.557.177ZM124.052 21.923l-.379-1.15h-2.188l-.378 1.15H120l1.918-5.572h1.323l1.917 5.572h-1.106Zm-2.25-2.117h1.554l-.775-2.364-.779 2.364ZM128.631 17.959h1.038v3.964h-.984l-.025-.478c-.274.37-.667.555-1.179.555-.444 0-.786-.118-1.024-.355-.237-.239-.356-.578-.356-1.018V17.96h1.041v2.43c0 .246.062.427.184.543a.683.683 0 0 0 .483.173c.24 0 .436-.074.588-.223.154-.152.232-.397.234-.737V17.96ZM132.421 22c-.433 0-.793-.093-1.081-.278-.289-.185-.465-.46-.53-.825l.868-.262c.104.393.351.59.743.59.151 0 .278-.03.378-.089.101-.061.151-.164.148-.308 0-.08-.02-.148-.061-.205a.491.491 0 0 0-.191-.146 2.064 2.064 0 0 0-.252-.104 6.199 6.199 0 0 0-.328-.1 4.388 4.388 0 0 1-.343-.116 2.482 2.482 0 0 1-.328-.147 1.61 1.61 0 0 1-.27-.204.868.868 0 0 1-.202-.312 1.21 1.21 0 0 1-.069-.425c0-.39.134-.686.401-.886.269-.201.62-.301 1.052-.301.385 0 .708.085.97.254.262.17.428.435.497.795l-.804.192c-.101-.334-.32-.5-.659-.5a.683.683 0 0 0-.364.088.29.29 0 0 0-.145.262c0 .044.008.084.022.12a.23.23 0 0 0 .076.096c.036.028.071.053.104.073.034.02.083.043.148.066l.162.05a30.097 30.097 0 0 1 .382.104c.133.039.248.077.346.116.101.038.208.092.321.162.113.069.206.147.278.235.074.085.136.194.184.328.048.13.072.277.072.44 0 .218-.042.41-.126.574a.98.98 0 0 1-.339.39c-.144.092-.305.16-.483.204-.176.046-.368.069-.577.069ZM136.442 21.923c-.361 0-.64-.107-.837-.32-.197-.216-.295-.522-.295-.918v-1.874h-.728v-.852h.234c.209 0 .363-.055.461-.166.099-.11.148-.307.148-.59v-.524h.937v1.28h.765v.852h-.765v1.755c0 .341.143.512.429.512h.336v.845h-.685ZM139.294 18.587a1.23 1.23 0 0 1 .487-.474c.226-.134.467-.2.725-.2v.99c-.409 0-.705.08-.887.24-.183.16-.274.442-.274.848v1.932h-1.046v-3.964h.995v.628ZM144.505 20.847c0 .422.03.744.09.968v.108h-.97l-.083-.432c-.132.17-.305.297-.519.382a1.801 1.801 0 0 1-1.016.092 1.181 1.181 0 0 1-.314-.115.92.92 0 0 1-.429-.52 1.355 1.355 0 0 1-.065-.433c0-.16.023-.302.069-.428a.997.997 0 0 1 .18-.324c.074-.087.172-.166.292-.235.12-.07.242-.126.367-.17.125-.043.272-.084.44-.123l.609-.147a.644.644 0 0 0 .274-.123.259.259 0 0 0 .083-.2c0-.178-.061-.305-.184-.382a.795.795 0 0 0-.439-.116c-.426 0-.667.202-.725.605l-.919-.177c.077-.409.256-.71.537-.902.281-.196.669-.293 1.164-.293 1.038 0 1.558.477 1.558 1.43v1.535Zm-1.828.401a.813.813 0 0 0 .642-.285c.165-.193.248-.477.248-.853l-.879.267a1.016 1.016 0 0 0-.371.162.341.341 0 0 0-.127.285c0 .136.046.242.137.316a.55.55 0 0 0 .35.108ZM145.887 21.923V16h1.049v5.923h-1.049ZM148.912 17.365a.568.568 0 0 1-.425-.185.642.642 0 0 1-.177-.455c0-.175.059-.324.177-.447a.569.569 0 0 1 .844 0 .627.627 0 0 1 .176.447c0 .177-.059.329-.176.455a.561.561 0 0 1-.419.185Zm-.53 4.558v-3.964h1.046v3.964h-1.046ZM153.91 20.847c0 .422.03.744.09.968v.108h-.97l-.083-.432c-.132.17-.305.297-.519.382a1.801 1.801 0 0 1-1.016.092 1.003 1.003 0 0 1-.57-.324.937.937 0 0 1-.173-.312 1.355 1.355 0 0 1-.065-.432c0-.16.023-.302.069-.428.046-.128.106-.236.18-.324.075-.087.172-.166.292-.235.12-.07.243-.126.368-.17.125-.043.271-.084.44-.123l.609-.147a.65.65 0 0 0 .274-.123.262.262 0 0 0 .083-.2c0-.178-.062-.305-.184-.382a.798.798 0 0 0-.44-.116c-.425 0-.667.202-.725.605l-.919-.177c.077-.409.256-.71.537-.902.282-.196.67-.293 1.165-.293 1.038 0 1.557.477 1.557 1.43v1.535Zm-1.828.401a.813.813 0 0 0 .642-.285c.166-.193.249-.477.249-.853l-.88.267a1.016 1.016 0 0 0-.371.162.343.343 0 0 0-.126.285c0 .136.045.242.137.316a.547.547 0 0 0 .349.108ZM.966 14.143 7.148 5h9.08L11.59 9.952l-2.318.572H17L0 21l5.795-7.619-4.83.762Z"/>
  <path fill="#131313" d="m0 0 16 5.333L7.908 8 0 0ZM13 9l4.172-4L24 7.545 13 9ZM10.161 2.03a3 3 0 1 1 5.678 1.94L13 3l-2.839-.97Z"/>
</svg>
