<svg xmlns="http://www.w3.org/2000/svg" fill="none" viewBox="0 0 149 22">
  <path fill="#131313" d="m119.052 21.923-.379-1.15h-2.188l-.378 1.15H115l1.918-5.572h1.323l1.917 5.572h-1.106Zm-2.25-2.117h1.554l-.775-2.364-.779 2.364Zm6.829-1.847h1.038v3.964h-.984l-.025-.478c-.274.37-.667.555-1.179.555-.444 0-.786-.118-1.024-.355-.237-.239-.356-.578-.356-1.018V17.96h1.041v2.43c0 .246.062.427.184.543a.683.683 0 0 0 .483.173c.24 0 .436-.074.588-.223.154-.152.232-.397.234-.737V17.96Zm3.79 4.041c-.433 0-.793-.093-1.081-.278-.289-.185-.465-.46-.53-.825l.868-.262c.104.393.351.59.743.59.151 0 .278-.03.378-.089.101-.061.151-.164.148-.308a.34.34 0 0 0-.061-.205.491.491 0 0 0-.191-.146 2.064 2.064 0 0 0-.252-.104 6.199 6.199 0 0 0-.328-.1 4.388 4.388 0 0 1-.343-.116 2.482 2.482 0 0 1-.328-.147 1.61 1.61 0 0 1-.27-.204.868.868 0 0 1-.202-.312 1.21 1.21 0 0 1-.069-.425c0-.39.134-.686.401-.886.269-.201.62-.301 1.052-.301.385 0 .708.085.97.254.262.17.428.435.497.795l-.804.192c-.101-.334-.32-.5-.659-.5a.683.683 0 0 0-.364.088.29.29 0 0 0-.145.262c0 .044.008.084.022.12a.23.23 0 0 0 .076.096c.036.028.071.053.104.073a.87.87 0 0 0 .148.066l.162.05a30.097 30.097 0 0 1 .382.104c.133.039.248.077.346.116.101.038.208.092.321.162.113.069.206.147.278.235.074.085.136.194.184.328.048.13.072.277.072.44 0 .218-.042.41-.126.574a.98.98 0 0 1-.339.39c-.144.092-.305.16-.483.204a2.276 2.276 0 0 1-.577.069Zm4.021-.077c-.361 0-.64-.107-.837-.32-.197-.216-.295-.522-.295-.918v-1.874h-.728v-.852h.234c.209 0 .363-.055.461-.166.099-.11.148-.307.148-.59v-.524h.937v1.28h.765v.852h-.765v1.755c0 .341.143.512.429.512h.336v.845h-.685Zm2.852-3.336a1.23 1.23 0 0 1 .487-.474c.226-.134.467-.2.725-.2v.99c-.409 0-.705.08-.887.24-.183.16-.274.442-.274.848v1.932h-1.046v-3.964h.995v.628Zm5.211 2.26c0 .422.03.744.09.968v.108h-.97l-.083-.432c-.132.17-.305.297-.519.382a1.801 1.801 0 0 1-1.016.092 1.181 1.181 0 0 1-.314-.115.92.92 0 0 1-.429-.52 1.355 1.355 0 0 1-.065-.433c0-.16.023-.302.069-.428a.997.997 0 0 1 .18-.324c.074-.087.172-.166.292-.235.12-.07.242-.126.367-.17.125-.043.272-.084.44-.123l.609-.147a.644.644 0 0 0 .274-.123.259.259 0 0 0 .083-.2c0-.178-.061-.305-.184-.382a.795.795 0 0 0-.439-.116c-.426 0-.667.202-.725.605l-.919-.177c.077-.409.256-.71.537-.902.281-.196.669-.293 1.164-.293 1.038 0 1.558.477 1.558 1.43v1.535Zm-1.828.401a.813.813 0 0 0 .642-.285c.165-.193.248-.477.248-.853l-.879.267a1.016 1.016 0 0 0-.371.162.341.341 0 0 0-.127.285c0 .136.046.242.137.316a.55.55 0 0 0 .35.108Zm3.21.675V16h1.049v5.923h-1.049Zm3.025-4.558a.568.568 0 0 1-.425-.185.642.642 0 0 1-.177-.455c0-.175.059-.324.177-.447a.569.569 0 0 1 .844 0 .627.627 0 0 1 .176.447.646.646 0 0 1-.176.455.561.561 0 0 1-.419.185Zm-.53 4.558v-3.964h1.046v3.964h-1.046Zm5.528-1.076c0 .422.03.744.09.968v.108h-.97l-.083-.432c-.132.17-.305.297-.519.382a1.801 1.801 0 0 1-1.016.092 1.003 1.003 0 0 1-.57-.324.937.937 0 0 1-.173-.312 1.355 1.355 0 0 1-.065-.432c0-.16.023-.302.069-.428a1.05 1.05 0 0 1 .18-.324c.075-.087.172-.166.292-.235.12-.07.243-.126.368-.17.125-.043.271-.084.44-.123l.609-.147a.65.65 0 0 0 .274-.123.262.262 0 0 0 .083-.2c0-.178-.062-.305-.184-.382a.798.798 0 0 0-.44-.116c-.425 0-.667.202-.725.605l-.919-.177c.077-.409.256-.71.537-.902.282-.196.67-.293 1.165-.293 1.038 0 1.557.477 1.557 1.43v1.535Zm-1.828.401a.813.813 0 0 0 .642-.285c.166-.193.249-.477.249-.853l-.88.267a1.016 1.016 0 0 0-.371.162.343.343 0 0 0-.126.285c0 .136.045.242.137.316a.547.547 0 0 0 .349.108ZM1.426 13.571 7.132 5h8.38l-4.28 4.643-2.139.536h7.132L.535 20l5.349-7.143-4.458.714Z"/>
  <path fill="#131313" d="m0 0 15.512 5-7.845 2.5L0 0Zm12.659 9.286 3.922-3.929L23 7.857 12.659 9.286ZM9.781 1.933a2.859 2.859 0 0 1 2.52-1.927 2.848 2.848 0 0 1 2.741 1.593 2.86 2.86 0 0 1 .138 2.183l-5.4-1.85Zm21.637 13.262a7.914 7.914 0 0 1-2.88-.517 6.773 6.773 0 0 1-2.286-1.446c-.638-.618-1.139-1.383-1.504-2.294-.364-.912-.546-1.911-.546-2.999 0-1.451.312-2.727.937-3.828a6.383 6.383 0 0 1 2.568-2.539c1.094-.586 2.331-.879 3.711-.879 1.576 0 2.956.381 4.141 1.143a6.255 6.255 0 0 1 2.53 3.144l-2.735.997c-.313-.814-.817-1.449-1.514-1.905-.696-.455-1.504-.683-2.422-.683-1.25 0-2.278.41-3.086 1.23-.807.82-1.21 1.927-1.21 3.32 0 1.394.403 2.504 1.21 3.33.814.82 1.843 1.231 3.086 1.231.912 0 1.716-.228 2.413-.684a3.9 3.9 0 0 0 1.523-1.914l2.734.996a6.305 6.305 0 0 1-2.529 3.155c-1.185.761-2.565 1.142-4.14 1.142Z"/>
  <path fill="#131313" d="M43.407 15.195c-1.068 0-2.015-.205-2.842-.615a4.63 4.63 0 0 1-1.953-1.807c-.469-.794-.703-1.728-.703-2.802 0-1.608.508-2.878 1.523-3.809 1.016-.93 2.34-1.396 3.975-1.396 1.64 0 2.969.465 3.984 1.396 1.016.931 1.524 2.2 1.524 3.809 0 1.614-.508 2.89-1.524 3.828-1.015.93-2.343 1.396-3.984 1.396Zm-.03-2.236c.821 0 1.482-.274 1.983-.82.508-.547.762-1.27.762-2.168 0-.899-.254-1.621-.762-2.168-.501-.547-1.162-.82-1.982-.82-.788 0-1.433.276-1.934.83-.495.546-.742 1.266-.742 2.158 0 .892.247 1.614.742 2.168.501.546 1.146.82 1.934.82ZM49.614 15V0h2.842v15h-2.842Zm4.362 0V0h2.842v15h-2.842Zm13.805-5.166-.029.674h-7.441c.058.8.325 1.413.8 1.836.476.423 1.065.635 1.768.635.508 0 .947-.114 1.318-.342a2.15 2.15 0 0 0 .85-1.016l2.578.381c-.332 1.01-.918 1.794-1.758 2.353-.84.56-1.83.84-2.969.84-1.64 0-2.946-.459-3.916-1.377-.963-.924-1.445-2.203-1.445-3.838 0-1.62.485-2.897 1.455-3.828.97-.937 2.243-1.406 3.819-1.406 1.497 0 2.698.427 3.603 1.28.905.852 1.36 2.122 1.367 3.808Zm-4.95-3.096c-1.368 0-2.182.645-2.442 1.934h4.61c-.073-.625-.304-1.104-.694-1.436-.39-.332-.883-.498-1.475-.498Z"/>
  <path fill="#131313" d="M75.434 4.96h2.676v9.288c0 .957-.127 1.79-.381 2.5-.248.71-.609 1.28-1.084 1.709a4.503 4.503 0 0 1-1.67.967c-.638.208-1.367.312-2.188.312-2.65 0-4.375-1.038-5.175-3.115l2.334-.996c.286.658.648 1.143 1.084 1.455.436.313.986.469 1.65.469 1.738 0 2.607-1.032 2.607-3.096v-1.172c-.299.41-.722.742-1.269.996a4.219 4.219 0 0 1-1.777.371 4.532 4.532 0 0 1-1.768-.351 4.595 4.595 0 0 1-1.455-.996 4.752 4.752 0 0 1-.996-1.582 5.6 5.6 0 0 1-.361-2.031c0-.736.12-1.413.36-2.032.248-.625.58-1.146.997-1.562a4.656 4.656 0 0 1 1.465-.977 4.557 4.557 0 0 1 1.777-.351c.69 0 1.309.14 1.856.42.553.273.97.64 1.25 1.103l.068-1.328Zm-4.316 6.642a2.477 2.477 0 0 0 1.845.771c.73 0 1.345-.26 1.846-.781.501-.521.752-1.156.752-1.905 0-.755-.25-1.393-.752-1.914-.495-.52-1.11-.78-1.846-.78-.742 0-1.36.256-1.855.77-.489.508-.733 1.15-.733 1.925 0 .761.248 1.4.743 1.914Zm17.965-1.768-.03.674h-7.44c.058.8.325 1.413.8 1.836.475.423 1.064.635 1.767.635.508 0 .948-.114 1.319-.342a2.15 2.15 0 0 0 .85-1.016l2.578.381c-.333 1.01-.918 1.794-1.758 2.353-.84.56-1.83.84-2.969.84-1.64 0-2.946-.459-3.916-1.377-.964-.924-1.445-2.203-1.445-3.838 0-1.62.485-2.897 1.455-3.828.97-.937 2.243-1.406 3.818-1.406 1.498 0 2.699.427 3.604 1.28.905.852 1.36 2.122 1.367 3.808Zm-4.951-3.096c-1.368 0-2.181.645-2.442 1.934h4.61c-.072-.625-.303-1.104-.694-1.436-.39-.332-.882-.498-1.474-.498Zm14.543 8.457c-1.55 0-2.854-.358-3.916-1.074-1.06-.723-1.696-1.732-1.904-3.027l3.027-.694c.098.775.407 1.37.928 1.787.528.41 1.188.616 1.983.616.631 0 1.145-.144 1.543-.43.397-.293.592-.723.585-1.289 0-.397-.166-.745-.498-1.045-.332-.3-.664-.511-.996-.635-.325-.13-.853-.306-1.582-.527a40.407 40.407 0 0 1-1.113-.361 17.577 17.577 0 0 1-.85-.323 6.836 6.836 0 0 1-.82-.41 7.313 7.313 0 0 1-.674-.508 2.738 2.738 0 0 1-.566-.654 3.449 3.449 0 0 1-.342-.81 3.575 3.575 0 0 1-.137-1.006c0-.853.218-1.592.655-2.217a4.028 4.028 0 0 1 1.777-1.416c.749-.32 1.598-.479 2.549-.479a8.02 8.02 0 0 1 1.836.205 6.322 6.322 0 0 1 1.65.635c.514.28.951.668 1.309 1.162a4.3 4.3 0 0 1 .752 1.71l-2.832.702c-.254-1.347-1.1-2.021-2.54-2.021-.637 0-1.161.137-1.572.41-.41.274-.615.687-.615 1.24 0 .515.342.931 1.026 1.25.319.157.973.381 1.962.674.385.117.697.215.938.293.241.078.544.192.908.342.365.15.661.296.889.44.228.136.475.315.742.536.267.222.475.456.625.704.156.247.286.54.391.879.104.332.156.693.156 1.084 0 .585-.095 1.116-.283 1.591-.189.476-.45.876-.782 1.201a4.51 4.51 0 0 1-1.162.83 5.663 5.663 0 0 1-1.435.48 8.016 8.016 0 0 1-1.612.155Zm12.106-10.429c.664 0 1.289.12 1.875.36.586.242 1.097.58 1.533 1.017.443.436.791.99 1.045 1.66.254.664.381 1.396.381 2.197 0 .8-.127 1.537-.381 2.207-.254.664-.602 1.214-1.045 1.65a4.633 4.633 0 0 1-1.533 1.016 4.883 4.883 0 0 1-1.875.361 4.355 4.355 0 0 1-1.816-.37c-.547-.248-.967-.6-1.26-1.055v6.074h-2.812V4.96h2.666l.078 1.348c.273-.489.69-.866 1.25-1.133a4.3 4.3 0 0 1 1.894-.41Zm-.635 8.134c.762 0 1.394-.26 1.895-.78.508-.528.762-1.235.762-2.12s-.254-1.589-.762-2.11c-.501-.527-1.133-.79-1.895-.79-.768 0-1.406.267-1.914.8-.507.534-.761 1.234-.761 2.1 0 .866.254 1.566.761 2.1.508.534 1.146.8 1.914.8Z"/>
  <path fill="#131313" d="M121.022 15.195c-1.068 0-2.015-.205-2.842-.615a4.626 4.626 0 0 1-1.953-1.807c-.469-.794-.703-1.728-.703-2.802 0-1.608.508-2.878 1.523-3.809 1.016-.93 2.341-1.396 3.975-1.396 1.641 0 2.969.465 3.984 1.396 1.016.931 1.524 2.2 1.524 3.809 0 1.614-.508 2.89-1.524 3.828-1.015.93-2.343 1.396-3.984 1.396Zm-.029-2.236c.82 0 1.481-.274 1.982-.82.508-.547.762-1.27.762-2.168 0-.899-.254-1.621-.762-2.168-.501-.547-1.162-.82-1.982-.82-.788 0-1.433.276-1.934.83-.495.546-.742 1.266-.742 2.158 0 .892.247 1.614.742 2.168.501.546 1.146.82 1.934.82Zm8.932-6.406c.267-.469.706-.87 1.318-1.201a3.992 3.992 0 0 1 1.963-.508v2.51c-1.107 0-1.908.201-2.402.605-.495.404-.743 1.12-.743 2.148V15h-2.832V4.96h2.696v1.593Z"/>
  <path fill="#131313" d="M137.792 15c-.976 0-1.732-.27-2.265-.81-.534-.547-.801-1.322-.801-2.325V7.12h-1.973V4.961h.635c.566 0 .983-.14 1.25-.42.267-.28.4-.778.4-1.494V1.719h2.539V4.96h2.071v2.158h-2.071v4.444c0 .865.388 1.298 1.162 1.298h.909V15h-1.856Z"/>
  <path fill="#131313" d="M143.961 15.195c-1.172 0-2.149-.234-2.93-.703-.781-.469-1.26-1.165-1.436-2.09l2.354-.664c.28.996.95 1.494 2.012 1.494.41 0 .752-.074 1.025-.224.273-.156.407-.417.4-.781a.82.82 0 0 0-.166-.518c-.11-.143-.283-.267-.517-.371a5.894 5.894 0 0 0-.684-.264 17.141 17.141 0 0 0-.889-.254c-.371-.104-.68-.202-.927-.293a6.872 6.872 0 0 1-.889-.37 4.331 4.331 0 0 1-.732-.518 2.199 2.199 0 0 1-.547-.791 2.896 2.896 0 0 1-.186-1.075c0-.99.362-1.738 1.084-2.246.729-.507 1.68-.761 2.852-.761 1.041 0 1.917.214 2.627.644.709.43 1.159 1.1 1.347 2.012l-2.177.488c-.274-.846-.869-1.27-1.787-1.27-.398 0-.726.075-.987.225a.722.722 0 0 0-.39.664c0 .111.019.212.058.303a.604.604 0 0 0 .205.244c.098.072.192.134.283.186.092.052.225.107.401.166.176.052.322.094.439.127a83.16 83.16 0 0 1 1.035.264c.359.097.671.195.938.292.273.098.563.235.869.41.306.176.557.375.752.596.202.215.368.492.498.83.13.332.195.703.195 1.114 0 .553-.114 1.038-.341 1.455a2.539 2.539 0 0 1-.918.986 4.473 4.473 0 0 1-1.309.518 6.518 6.518 0 0 1-1.562.175Z"/>
</svg>
